<svg xmlns="http://www.w3.org/2000/svg" version="1.1" xmlns:xlink="http://www.w3.org/1999/xlink" xmlns:svgjs="http://svgjs.com/svgjs" width="100" height="100"><svg xmlns="http://www.w3.org/2000/svg" width="100" viewBox="0 0 375 375" height="100" version="1.0"><defs><clipPath id="SvgjsClipPath1002"><path d="M 28.667969 7.652344 L 177 7.652344 L 177 156 L 28.667969 156 Z M 28.667969 7.652344"></path></clipPath><clipPath id="SvgjsClipPath1001"><path d="M 91 188 L 251 188 L 251 312.152344 L 91 312.152344 Z M 91 188"></path></clipPath><clipPath id="SvgjsClipPath1000"><path d="M 267 188 L 346.667969 188 L 346.667969 312.152344 L 267 312.152344 Z M 267 188"></path></clipPath></defs><path fill="#9F2219" d="M 73.3125 238.984375 L 92.6875 238.984375 L 92.6875 261.492188 L 73.3125 261.492188 L 73.3125 238.984375"></path><path fill="#EF3629" d="M 43.355469 220.300781 L 81.667969 233.804688 L 81.667969 266.667969 L 43.355469 280.167969 L 43.355469 220.300781"></path><path fill="#162938" d="M 313.414062 111.257812 C 313.414062 142.835938 287.785156 168.4375 256.167969 168.4375 C 224.546875 168.4375 198.917969 142.835938 198.917969 111.257812 C 198.917969 79.679688 224.546875 54.082031 256.167969 54.082031 C 287.785156 54.082031 313.414062 79.679688 313.414062 111.257812"></path><path fill="#57C7D4" d="M 305.582031 126.179688 C 297.332031 126.179688 290.640625 119.5 290.640625 111.257812 C 290.640625 103.015625 297.332031 96.339844 305.582031 96.339844 C 313.832031 96.339844 320.523438 103.015625 320.523438 111.257812 C 320.523438 119.5 313.832031 126.179688 305.582031 126.179688 Z M 301.207031 157.914062 C 295.375 163.742188 285.914062 163.742188 280.078125 157.914062 C 274.246094 152.085938 274.246094 142.644531 280.078125 136.816406 C 285.914062 130.988281 295.375 130.988281 301.207031 136.816406 C 307.042969 142.644531 307.046875 152.085938 301.207031 157.914062 Z M 254.578125 75.238281 C 246.332031 75.238281 239.636719 68.558594 239.636719 60.316406 C 239.636719 52.078125 246.332031 45.394531 254.578125 45.394531 C 262.824219 45.394531 269.511719 52.078125 269.511719 60.316406 C 269.511719 68.558594 262.824219 75.238281 254.578125 75.238281 Z M 254.578125 177.121094 C 246.332031 177.121094 239.636719 170.441406 239.636719 162.199219 C 239.636719 153.960938 246.332031 147.28125 254.578125 147.28125 C 262.824219 147.28125 269.511719 153.960938 269.511719 162.199219 C 269.511719 170.441406 262.824219 177.121094 254.578125 177.121094 Z M 229.078125 157.914062 C 223.242188 163.742188 213.777344 163.742188 207.945312 157.914062 C 202.109375 152.085938 202.113281 142.644531 207.949219 136.816406 C 213.777344 130.988281 223.242188 130.988281 229.078125 136.816406 C 234.90625 142.644531 234.90625 152.085938 229.078125 157.914062 Z M 188.632812 111.257812 C 188.632812 103.015625 195.320312 96.339844 203.570312 96.339844 C 211.820312 96.339844 218.511719 103.015625 218.511719 111.257812 C 218.511719 119.5 211.820312 126.179688 203.570312 126.179688 C 195.320312 126.179688 188.632812 119.5 188.632812 111.257812 Z M 207.945312 64.773438 C 213.777344 58.941406 223.242188 58.941406 229.074219 64.773438 C 234.90625 70.597656 234.90625 80.046875 229.078125 85.867188 C 223.242188 91.695312 213.777344 91.695312 207.945312 85.867188 C 202.113281 80.046875 202.109375 70.597656 207.945312 64.773438 Z M 280.082031 64.773438 C 285.914062 58.941406 295.375 58.941406 301.207031 64.773438 C 307.046875 70.597656 307.042969 80.046875 301.207031 85.867188 C 295.375 91.695312 285.914062 91.695312 280.078125 85.867188 C 274.246094 80.046875 274.246094 70.597656 280.082031 64.773438 Z M 254.578125 37.546875 C 213.816406 37.546875 180.769531 70.550781 180.769531 111.257812 C 180.769531 151.96875 213.816406 184.96875 254.578125 184.96875 C 295.339844 184.96875 328.386719 151.96875 328.386719 111.257812 C 328.386719 70.550781 295.339844 37.546875 254.578125 37.546875"></path><path fill="#EF3629" d="M 200.230469 214.410156 L 268.933594 125.078125 C 275.207031 116.917969 273.671875 105.234375 265.507812 98.976562 C 257.34375 92.710938 245.644531 94.242188 239.371094 102.398438 L 170.664062 191.734375 L 200.230469 214.410156"></path><path fill="#9F2219" d="M 284.558594 273.511719 L 244.476562 273.511719 L 244.476562 226.957031 L 284.558594 226.957031 L 284.558594 273.511719"></path><path fill="#162938" d="M 161.371094 81.375 C 161.371094 112.953125 135.742188 138.550781 104.121094 138.550781 C 72.503906 138.550781 46.871094 112.953125 46.871094 81.375 C 46.871094 49.792969 72.503906 24.195312 104.121094 24.195312 C 135.742188 24.195312 161.371094 49.792969 161.371094 81.375"></path><g clip-path="url(#a)"><path fill="#57C7D4" d="M 153.539062 96.296875 C 145.289062 96.296875 138.59375 89.617188 138.59375 81.375 C 138.59375 73.132812 145.289062 66.457031 153.539062 66.457031 C 161.785156 66.457031 168.476562 73.132812 168.476562 81.375 C 168.476562 89.617188 161.785156 96.296875 153.539062 96.296875 Z M 149.164062 128.035156 C 143.328125 133.859375 133.867188 133.859375 128.03125 128.03125 C 122.199219 122.207031 122.199219 112.753906 128.03125 106.929688 C 133.867188 101.105469 143.328125 101.105469 149.160156 106.929688 C 154.996094 112.753906 155 122.207031 149.164062 128.035156 Z M 102.527344 45.351562 C 94.28125 45.351562 87.59375 38.675781 87.59375 30.429688 C 87.59375 22.191406 94.28125 15.515625 102.527344 15.515625 C 110.777344 15.515625 117.46875 22.191406 117.46875 30.429688 C 117.46875 38.675781 110.777344 45.351562 102.527344 45.351562 Z M 102.527344 147.234375 C 94.28125 147.234375 87.59375 140.554688 87.59375 132.316406 C 87.59375 124.074219 94.28125 117.394531 102.527344 117.394531 C 110.777344 117.394531 117.46875 124.074219 117.46875 132.316406 C 117.46875 140.554688 110.777344 147.234375 102.527344 147.234375 Z M 77.027344 128.03125 C 71.191406 133.859375 61.734375 133.859375 55.902344 128.035156 C 50.066406 122.207031 50.066406 112.753906 55.902344 106.929688 C 61.734375 101.105469 71.191406 101.105469 77.027344 106.929688 C 82.863281 112.753906 82.863281 122.207031 77.027344 128.03125 Z M 36.585938 81.375 C 36.585938 73.132812 43.277344 66.457031 51.523438 66.457031 C 59.777344 66.457031 66.460938 73.132812 66.460938 81.375 C 66.460938 89.617188 59.777344 96.296875 51.523438 96.296875 C 43.277344 96.296875 36.585938 89.617188 36.585938 81.375 Z M 55.902344 34.890625 C 61.734375 29.0625 71.191406 29.0625 77.027344 34.890625 C 82.863281 40.710938 82.863281 50.164062 77.027344 55.988281 C 71.191406 61.816406 61.734375 61.816406 55.902344 55.988281 C 50.066406 50.164062 50.066406 40.710938 55.902344 34.890625 Z M 128.035156 34.890625 C 133.867188 29.0625 143.328125 29.0625 149.164062 34.890625 C 155 40.710938 154.996094 50.164062 149.164062 55.988281 C 143.328125 61.816406 133.867188 61.816406 128.03125 55.988281 C 122.199219 50.164062 122.199219 40.710938 128.035156 34.890625 Z M 102.527344 7.660156 C 61.769531 7.660156 28.726562 40.664062 28.726562 81.375 C 28.726562 122.085938 61.769531 155.085938 102.527344 155.085938 C 143.292969 155.085938 176.335938 122.085938 176.335938 81.375 C 176.335938 40.664062 143.292969 7.660156 102.527344 7.660156"></path></g><path fill="#FAB226" d="M 264.109375 111.363281 C 264.109375 116.621094 259.839844 120.882812 254.578125 120.882812 C 249.3125 120.882812 245.042969 116.621094 245.042969 111.363281 C 245.042969 106.109375 249.3125 101.847656 254.578125 101.847656 C 259.839844 101.847656 264.109375 106.109375 264.109375 111.363281"></path><g clip-path="url(#b)"><path fill="#EF3629" d="M 250.066406 312.148438 L 91.597656 312.148438 L 91.597656 188.324219 L 250.066406 188.324219 L 250.066406 312.148438"></path></g><path fill="#9F2219" d="M 223.183594 291.136719 L 118.484375 291.136719 L 118.484375 209.332031 L 223.183594 209.332031 L 223.183594 291.136719"></path><g clip-path="url(#c)"><path fill="#EF3629" d="M 346.515625 312.148438 L 267.277344 284.214844 L 267.277344 216.25 L 346.515625 188.324219 L 346.515625 312.148438"></path></g><path fill="#EF3629" d="M 179.238281 193.265625 L 119.296875 73.796875 C 114.691406 64.601562 103.496094 60.875 94.292969 65.472656 C 85.082031 70.066406 81.347656 81.253906 85.957031 90.449219 L 136.398438 191.199219 L 179.238281 193.265625"></path><path fill="#FAB226" d="M 112.0625 81.480469 C 112.0625 86.738281 107.792969 91 102.527344 91 C 97.265625 91 92.996094 86.738281 92.996094 81.480469 C 92.996094 76.222656 97.265625 71.960938 102.527344 71.960938 C 107.792969 71.960938 112.0625 76.222656 112.0625 81.480469"></path><g fill="#4C5270"><g><g><path d="M 23.269531 -26.5 L 23.269531 -32.851562 L 3.503906 -32.851562 L 3.503906 0 L 10.730469 0 L 10.730469 -13.25 L 21.464844 -13.25 L 21.464844 -19.601562 L 10.730469 -19.601562 L 10.730469 -26.5 Z M 23.269531 -26.5" transform="translate(127.328 361.592)"></path></g></g></g><g fill="#4C5270"><g><g><path d="M 31.867188 -32.851562 L 21.410156 -10.128906 L 11.0625 -32.851562 L 3.230469 -32.851562 L 3.230469 0 L 10.457031 0 L 10.457031 -19.601562 L 19.328125 0 L 23.488281 0 L 32.414062 -19.546875 L 32.414062 0 L 39.644531 0 L 39.644531 -32.851562 Z M 31.867188 -32.851562" transform="translate(150.268 361.592)"></path></g></g></g><g fill="#4C5270"><g><g><path d="M 23.324219 0 L 31.046875 0 L 19.21875 -32.851562 L 11.117188 -32.851562 L -0.710938 0 L 7.007812 0 L 9.035156 -6.1875 L 21.300781 -6.1875 Z M 10.949219 -12.210938 L 15.167969 -25.242188 L 19.382812 -12.210938 Z M 10.949219 -12.210938" transform="translate(192.261 361.592)"></path></g></g></g><g fill="#4C5270"><g><g><path d="M 13.359375 0.4375 C 19.492188 0.4375 24.695312 -3.175781 24.695312 -9.308594 C 24.695312 -21.464844 9.582031 -18.453125 9.582031 -24.148438 C 9.582031 -26.007812 11.007812 -26.886719 12.757812 -26.886719 C 14.621094 -26.886719 16.480469 -25.84375 18.125 -24.039062 L 22.941406 -28.636719 C 20.535156 -31.429688 16.863281 -33.292969 12.8125 -33.292969 C 7.609375 -33.292969 2.300781 -30.171875 2.300781 -23.601562 C 2.300781 -12.429688 17.46875 -15.113281 17.46875 -9.363281 C 17.46875 -7.554688 15.933594 -6.351562 13.414062 -6.351562 C 10.402344 -6.351562 8.050781 -8.050781 6.84375 -10.621094 L 0.875 -6.898438 C 3.011719 -2.792969 7.609375 0.4375 13.359375 0.4375 Z M 13.359375 0.4375" transform="translate(221.717 361.592)"></path></g></g></g></svg><style>@media (prefers-color-scheme: light) { :root { filter: none; } }
</style></svg>